<svg width="20" height="17" viewBox="0 0 20 17" fill="none" xmlns="http://www.w3.org/2000/svg">
<path d="M11.0692 15H2.16296C1.84802 15 1.54597 14.8683 1.32327 14.6339C1.10058 14.3995 0.975464 14.0815 0.975464 13.75V1.25C0.975464 0.918479 1.10058 0.600537 1.32327 0.366116C1.54597 0.131696 1.84802 0 2.16296 0H18.788C19.1029 0 19.405 0.131696 19.6277 0.366116C19.8504 0.600537 19.9755 0.918479 19.9755 1.25V7.73125C19.1845 6.67077 18.0338 5.97418 16.7653 5.78778C15.4967 5.60137 14.2088 5.93965 13.1722 6.73158C12.1355 7.5235 11.4307 8.70745 11.2057 10.0348C10.9808 11.3621 11.2532 12.7296 11.9658 13.85L11.4136 14.5625L11.0692 15ZM3.94421 3.75V4.75H14.038V3.75H3.94421ZM3.94421 7.25H10.4755V6.25H3.94421V7.25ZM3.94421 11.625H9.88171V10.625H3.94421V11.625Z" fill="#484848" fill-opacity="0.9"/>
<path d="M19.9755 10.7663C19.9771 10.1444 19.8144 9.53193 19.5019 8.98371C19.1895 8.43548 18.7369 7.96868 18.185 7.62518C17.6331 7.28168 16.999 7.07223 16.3397 7.01561C15.6803 6.95899 15.0163 7.05697 14.4072 7.30077C13.7981 7.54457 13.263 7.92656 12.8498 8.41248C12.4367 8.89839 12.1584 9.47303 12.04 10.0848C11.9215 10.6967 11.9667 11.3265 12.1713 11.9179C12.376 12.5093 12.7337 13.0437 13.2125 13.4733L11.9943 14.871L12.5594 17L14.8577 14.3697C15.5852 14.5717 16.3594 14.5717 17.0869 14.3697L19.3852 17L19.9503 14.871L18.7321 13.4733C19.1239 13.1247 19.4361 12.7051 19.6498 12.2397C19.8636 11.7744 19.9744 11.2731 19.9755 10.7663ZM13.2313 10.7663C13.2239 10.2551 13.3784 9.75338 13.6754 9.32493C13.9723 8.89648 14.3982 8.56065 14.899 8.36015C15.3997 8.15964 15.9526 8.10353 16.4873 8.19894C17.0221 8.29435 17.5146 8.53698 17.9021 8.89596C18.2897 9.25494 18.5548 9.71407 18.6638 10.2149C18.7727 10.7158 18.7206 11.2358 18.5141 11.7088C18.3075 12.1818 17.9559 12.5864 17.5038 12.8712C17.0518 13.156 16.5198 13.3081 15.9754 13.3081C15.2542 13.3097 14.5616 13.0434 14.0487 12.5672C13.5358 12.091 13.2442 11.4436 13.2376 10.7663H13.2313Z" fill="#484848" fill-opacity="0.9"/>
</svg>
