<svg width="20" height="17" viewBox="0 0 20 17" fill="none" xmlns="http://www.w3.org/2000/svg">
<path d="M11.0691 15H2.16284C1.8479 15 1.54585 14.8683 1.32315 14.6339C1.10045 14.3995 0.975342 14.0815 0.975342 13.75V1.25C0.975342 0.918479 1.10045 0.600537 1.32315 0.366116C1.54585 0.131696 1.8479 0 2.16284 0H18.7878C19.1028 0 19.4048 0.131696 19.6275 0.366116C19.8502 0.600537 19.9753 0.918479 19.9753 1.25V7.73125C19.1843 6.67077 18.0337 5.97418 16.7651 5.78778C15.4966 5.60137 14.2087 5.93965 13.172 6.73158C12.1354 7.5235 11.4306 8.70745 11.2056 10.0348C10.9807 11.3621 11.2531 12.7296 11.9657 13.85L11.4135 14.5625L11.0691 15ZM3.94409 3.75V4.75H14.0378V3.75H3.94409ZM3.94409 7.25H10.4753V6.25H3.94409V7.25ZM3.94409 11.625H9.88159V10.625H3.94409V11.625Z" fill="#232428" fill-opacity="0.9"/>
<path d="M19.9753 10.7663C19.977 10.1444 19.8143 9.53193 19.5018 8.98371C19.1893 8.43548 18.7368 7.96868 18.1849 7.62518C17.633 7.28168 16.9989 7.07223 16.3396 7.01561C15.6802 6.95899 15.0162 7.05697 14.4071 7.30077C13.798 7.54457 13.2629 7.92656 12.8497 8.41248C12.4365 8.89839 12.1583 9.47303 12.0398 10.0848C11.9214 10.6967 11.9666 11.3265 12.1712 11.9179C12.3759 12.5093 12.7336 13.0437 13.2124 13.4733L11.9942 14.871L12.5593 17L14.8576 14.3697C15.5851 14.5717 16.3593 14.5717 17.0868 14.3697L19.3851 17L19.9502 14.871L18.732 13.4733C19.1238 13.1247 19.436 12.7051 19.6497 12.2397C19.8635 11.7744 19.9742 11.2731 19.9753 10.7663V10.7663ZM13.2312 10.7663C13.2237 10.2551 13.3783 9.75338 13.6753 9.32493C13.9722 8.89648 14.3981 8.56065 14.8988 8.36015C15.3995 8.15964 15.9524 8.10353 16.4872 8.19894C17.022 8.29435 17.5144 8.53698 17.902 8.89596C18.2895 9.25494 18.5547 9.71407 18.6636 10.2149C18.7726 10.7158 18.7205 11.2358 18.514 11.7088C18.3074 12.1818 17.9558 12.5864 17.5037 12.8712C17.0517 13.156 16.5197 13.3081 15.9753 13.3081C15.2541 13.3097 14.5615 13.0434 14.0486 12.5672C13.5357 12.091 13.2441 11.4436 13.2375 10.7663H13.2312Z" fill="#232428" fill-opacity="0.9"/>
</svg>
