<svg width="17" height="17" viewBox="0 0 17 17" fill="none" xmlns="http://www.w3.org/2000/svg">
<path d="M9.23897 0.310442C9.0397 0.111236 8.76947 -0.000671387 8.48771 -0.000671387C8.20595 -0.000671387 7.93572 0.111236 7.73646 0.310442L0.298283 7.74862C0.104723 7.94902 -0.00238087 8.21744 4.01689e-05 8.49605C0.00246121 8.77466 0.114213 9.04117 0.311227 9.23818C0.508241 9.4352 0.774753 9.54695 1.05336 9.54937C1.33197 9.55179 1.60039 9.44469 1.80079 9.25113L2.11213 8.93979V15.938C2.11213 16.2199 2.22409 16.4901 2.42336 16.6894C2.62264 16.8887 2.89291 17.0006 3.17473 17.0006H5.29992C5.58174 17.0006 5.85202 16.8887 6.05129 16.6894C6.25057 16.4901 6.36252 16.2199 6.36252 15.938V13.8129C6.36252 13.531 6.47447 13.2608 6.67375 13.0615C6.87302 12.8622 7.1433 12.7503 7.42512 12.7503H9.55031C9.83213 12.7503 10.1024 12.8622 10.3017 13.0615C10.501 13.2608 10.6129 13.531 10.6129 13.8129V15.938C10.6129 16.2199 10.7249 16.4901 10.9241 16.6894C11.1234 16.8887 11.3937 17.0006 11.6755 17.0006H13.8007C14.0825 17.0006 14.3528 16.8887 14.5521 16.6894C14.7513 16.4901 14.8633 16.2199 14.8633 15.938V8.93979L15.1746 9.25113C15.375 9.44469 15.6435 9.55179 15.9221 9.54937C16.2007 9.54695 16.4672 9.4352 16.6642 9.23818C16.8612 9.04117 16.973 8.77466 16.9754 8.49605C16.9778 8.21744 16.8707 7.94902 16.6771 7.74862L9.23897 0.310442Z" fill="#232426"/>
</svg>
