<svg width="17" height="19" viewBox="0 0 17 19" fill="none" xmlns="http://www.w3.org/2000/svg">
<path d="M8.97559 0.5C11.1856 0.5 12.9756 2.29 12.9756 4.5C12.9756 6.71 11.1856 8.5 8.97559 8.5C6.76559 8.5 4.97559 6.71 4.97559 4.5C4.97559 2.29 6.76559 0.5 8.97559 0.5ZM12.9756 11.04C12.9756 12.1 12.6956 14.57 10.7856 17.33L9.97559 12.5L10.9156 10.62C10.2956 10.55 9.64559 10.5 8.97559 10.5C8.30559 10.5 7.65559 10.55 7.03559 10.62L7.97559 12.5L7.16559 17.33C5.25559 14.57 4.97559 12.1 4.97559 11.04C2.58559 11.74 0.975586 13 0.975586 14.5V18.5H16.9756V14.5C16.9756 13 15.3756 11.74 12.9756 11.04Z" fill="white"/>
</svg>
