<svg width="17" height="19" viewBox="0 0 17 19" fill="none" xmlns="http://www.w3.org/2000/svg">
<path d="M8.97546 0.5C11.1855 0.5 12.9755 2.29 12.9755 4.5C12.9755 6.71 11.1855 8.5 8.97546 8.5C6.76546 8.5 4.97546 6.71 4.97546 4.5C4.97546 2.29 6.76546 0.5 8.97546 0.5ZM12.9755 11.04C12.9755 12.1 12.6955 14.57 10.7855 17.33L9.97546 12.5L10.9155 10.62C10.2955 10.55 9.64546 10.5 8.97546 10.5C8.30546 10.5 7.65546 10.55 7.03546 10.62L7.97546 12.5L7.16546 17.33C5.25546 14.57 4.97546 12.1 4.97546 11.04C2.58546 11.74 0.975464 13 0.975464 14.5V18.5H16.9755V14.5C16.9755 13 15.3755 11.74 12.9755 11.04Z" fill="#484848" fill-opacity="0.9"/>
</svg>
