<svg width="16" height="19" viewBox="0 0 16 19" fill="none" xmlns="http://www.w3.org/2000/svg">
<path d="M15.9755 13.3594V0.890625C15.9755 0.39707 15.6172 0 15.1719 0H4.18975C2.4152 0 0.975464 1.5957 0.975464 3.5625V15.4375C0.975464 17.4043 2.4152 19 4.18975 19H15.1719C15.6172 19 15.9755 18.6029 15.9755 18.1094V17.5156C15.9755 17.2373 15.8583 16.985 15.6775 16.8217C15.5368 16.2502 15.5368 14.6211 15.6775 14.0496C15.8583 13.89 15.9755 13.6377 15.9755 13.3594ZM5.26118 4.97266C5.26118 4.8502 5.35158 4.75 5.46207 4.75H12.5603C12.6708 4.75 12.7612 4.8502 12.7612 4.97266V5.71484C12.7612 5.8373 12.6708 5.9375 12.5603 5.9375H5.46207C5.35158 5.9375 5.26118 5.8373 5.26118 5.71484V4.97266ZM5.26118 7.34766C5.26118 7.2252 5.35158 7.125 5.46207 7.125H12.5603C12.6708 7.125 12.7612 7.2252 12.7612 7.34766V8.08984C12.7612 8.21231 12.6708 8.3125 12.5603 8.3125H5.46207C5.35158 8.3125 5.26118 8.21231 5.26118 8.08984V7.34766ZM13.7456 16.625H4.18975C3.59712 16.625 3.11832 16.0943 3.11832 15.4375C3.11832 14.7844 3.60046 14.25 4.18975 14.25H13.7456C13.6819 14.8846 13.6819 15.9904 13.7456 16.625Z" fill="#484848" fill-opacity="0.9"/>
</svg>
