<svg width="16" height="19" viewBox="0 0 16 19" fill="none" xmlns="http://www.w3.org/2000/svg">
<path d="M15.9753 13.3594V0.890625C15.9753 0.39707 15.6171 0 15.1718 0H4.18963C2.41507 0 0.975342 1.5957 0.975342 3.5625V15.4375C0.975342 17.4043 2.41507 19 4.18963 19H15.1718C15.6171 19 15.9753 18.6029 15.9753 18.1094V17.5156C15.9753 17.2373 15.8582 16.985 15.6774 16.8217C15.5367 16.2502 15.5367 14.6211 15.6774 14.0496C15.8582 13.89 15.9753 13.6377 15.9753 13.3594ZM5.26106 4.97266C5.26106 4.8502 5.35146 4.75 5.46195 4.75H12.5602C12.6707 4.75 12.7611 4.8502 12.7611 4.97266V5.71484C12.7611 5.8373 12.6707 5.9375 12.5602 5.9375H5.46195C5.35146 5.9375 5.26106 5.8373 5.26106 5.71484V4.97266ZM5.26106 7.34766C5.26106 7.2252 5.35146 7.125 5.46195 7.125H12.5602C12.6707 7.125 12.7611 7.2252 12.7611 7.34766V8.08984C12.7611 8.2123 12.6707 8.3125 12.5602 8.3125H5.46195C5.35146 8.3125 5.26106 8.2123 5.26106 8.08984V7.34766ZM13.7454 16.625H4.18963C3.59699 16.625 3.1182 16.0943 3.1182 15.4375C3.1182 14.7844 3.60034 14.25 4.18963 14.25H13.7454C13.6818 14.8846 13.6818 15.9904 13.7454 16.625Z" fill="#484848"/>
</svg>
